<svg width="247" height="175" viewBox="0 0 247 175" fill="none" xmlns="http://www.w3.org/2000/svg">
<path d="M147.957 97.4616V95.4015H165.297V91.4409H143.65V98.5467C143.65 101.524 146.256 103.941 149.472 103.941H165.478V99.9782H150.673C149.169 99.9761 147.957 98.8496 147.957 97.4616Z" fill="white"/>
<path d="M149.287 82.6626C146.697 82.6626 144.515 84.3369 143.861 86.6169H151.745H165.421V82.6543L149.287 82.6626Z" fill="white"/>
<path d="M15.0226 103.123C15.0226 103.144 15.0431 103.164 15.0534 103.185L15.1293 103.123H15.0226Z" fill="url(#paint0_linear_1_730)"/>
<path d="M70.3584 91.4389C70.3596 95.632 69.5083 99.7815 67.8563 103.635C66.2043 107.489 63.7861 110.967 60.7485 113.858L57.4062 111.084C58.3815 110.19 59.2898 109.227 60.1241 108.2C60.3896 107.877 60.6469 107.545 60.8958 107.206C64.2864 102.615 66.1298 97.0641 66.16 91.3563C66.1902 85.6485 64.4056 80.0788 61.0639 75.4515C60.7983 75.0849 60.5217 74.7253 60.234 74.3726L63.3274 71.8042C64.274 72.956 65.1359 74.1749 65.9062 75.4515C66.6673 76.707 67.3364 78.0161 67.9082 79.3684C69.528 83.1863 70.3613 87.2916 70.3584 91.4389Z" fill="url(#paint1_linear_1_730)"/>
<path d="M15.1293 103.123L15.0534 103.185C15.0534 103.164 15.0308 103.144 15.0226 103.123H15.1293Z" fill="url(#paint2_linear_1_730)"/>
<path d="M48.3024 107.206H31.8834V103.123H43.3813L48.3024 107.206Z" fill="url(#paint3_linear_1_730)"/>
<path d="M48.4663 75.4512L43.7485 79.3682H31.8834V75.4512H48.4663Z" fill="url(#paint4_linear_1_730)"/>
<path fill-rule="evenodd" clip-rule="evenodd" d="M58.5806 115.739C54.8623 118.667 50.5235 120.705 45.8962 121.698C41.269 122.691 36.4759 122.612 31.8838 121.467C30.5033 121.124 29.1487 120.683 27.8299 120.15C21.8597 117.731 16.7885 113.517 13.3175 108.09C13.1308 107.797 12.9503 107.501 12.7719 107.202C12.4897 106.727 12.218 106.241 11.9607 105.75C11.514 104.896 11.1073 104.02 10.7408 103.121C10.5665 102.692 10.4005 102.26 10.2449 101.82C7.84199 95.0442 7.86398 87.6443 10.3072 80.8827C10.4925 80.3695 10.691 79.864 10.9026 79.3661C11.2346 78.5819 11.5976 77.8149 11.9918 77.0653C12.2809 76.512 12.5852 75.9733 12.9047 75.4491C13.0789 75.1587 13.2588 74.8724 13.4441 74.5902C16.9106 69.2553 21.9324 65.1142 27.8299 62.7272C29.1487 62.1939 30.5033 61.7536 31.8838 61.4098C36.4644 60.2593 41.2477 60.1736 45.8666 61.1594C50.4854 62.1451 54.817 64.1762 58.5288 67.0965L55.4168 69.6836C49.9254 65.5422 43.0574 63.6591 36.2218 64.4206C29.3861 65.1822 23.1009 68.5306 18.6557 73.779C18.1951 74.3184 17.7594 74.8765 17.3424 75.4512C16.9842 75.9477 16.6425 76.4539 16.3175 76.9698C15.8382 77.7362 15.3992 78.5271 15.0022 79.3391L14.9275 79.4947C14.3108 80.7654 13.7974 82.0836 13.3922 83.4366C11.8545 88.5708 11.874 94.0457 13.4482 99.1688C13.8649 100.529 14.3915 101.853 15.0229 103.127C15.0229 103.148 15.0437 103.169 15.054 103.19C15.4593 103.999 15.9053 104.787 16.3901 105.551C16.747 106.118 17.1239 106.671 17.5208 107.21C17.9178 107.75 18.3396 108.278 18.7864 108.795C22.7452 113.386 28.135 116.509 34.0863 117.661C40.0376 118.812 46.2034 117.926 51.589 115.144C52.8447 114.497 54.0476 113.753 55.1865 112.918L58.5806 115.739Z" fill="url(#paint5_linear_1_730)"/>
<path fill-rule="evenodd" clip-rule="evenodd" d="M34.4935 95.7431L43.3814 103.123H37.0972L31.8836 98.7949L31.3504 98.353L28.201 95.7368L27.8857 95.4775L27.8297 95.4298L26.1139 94.0045L22.8878 91.3282L26.0309 88.7203L27.8297 87.2265L28.2467 86.878L31.3442 84.3095L31.8836 83.8614L37.2964 79.3677H43.7486L34.5682 86.9859L31.8836 89.2161L31.4728 89.5564L29.255 91.3966L31.3442 93.129L31.8836 93.5792L34.4935 95.7431Z" fill="url(#paint6_linear_1_730)"/>
<path fill-rule="evenodd" clip-rule="evenodd" d="M60.124 108.2C59.2898 109.226 58.3814 110.19 57.4062 111.084L52.734 107.206L47.815 103.123L36.7093 93.9056L33.5599 91.2852L36.6574 88.7168L39.8068 91.3309L54.0058 103.119L58.9207 107.206L60.124 108.2Z" fill="url(#paint7_linear_1_730)"/>
<path fill-rule="evenodd" clip-rule="evenodd" d="M63.3355 71.8042L60.2422 74.3726L58.9414 75.4515L54.2236 79.3684L39.8067 91.3351L36.6573 88.7211L47.9249 79.3684L52.6448 75.4515L57.4974 71.4245L60.5804 68.8623C61.561 69.7827 62.4813 70.7654 63.3355 71.8042Z" fill="url(#paint8_linear_1_730)"/>
<path d="M31.8836 75.4512V83.8619L31.3442 84.31L28.2467 86.8785L27.8297 87.227V75.4512H31.8836Z" fill="url(#paint9_linear_1_730)"/>
<path d="M31.8836 98.7953V107.206H27.8297V95.4302L27.8857 95.4779L28.2011 95.7372L31.3504 98.3534L31.8836 98.7953Z" fill="url(#paint10_linear_1_730)"/>
<path d="M23.0165 100.569C23.0165 100.587 23.0329 100.606 23.0432 100.624L23.1109 100.569H23.0165Z" fill="url(#paint11_linear_1_730)"/>
<path d="M23.1109 100.569L23.0432 100.624C23.0432 100.606 23.0247 100.587 23.0165 100.569H23.1109Z" fill="url(#paint12_linear_1_730)"/>
<path d="M112.729 82.6629H131.1C131.983 82.6537 132.854 82.8678 133.632 83.2853C134.377 83.6795 135.007 84.2616 135.459 84.9741C135.902 85.664 136.136 86.4675 136.132 87.2873V92.474C136.158 93.5159 135.805 94.5319 135.138 95.3329C134.459 96.1321 133.532 96.6801 132.505 96.8889L136.629 103.943H132.036L128.007 97.0507H117.088V103.941H112.731L112.729 82.6629ZM130.399 93.1151C130.769 93.1282 131.129 92.9998 131.408 92.7562C131.538 92.637 131.641 92.4908 131.709 92.3277C131.777 92.1647 131.809 91.9887 131.802 91.8122V87.9284C131.811 87.7497 131.781 87.5711 131.713 87.4057C131.644 87.2402 131.54 87.092 131.408 86.972C131.126 86.735 130.767 86.6114 130.399 86.6255H117.088V93.1151H130.399Z" fill="white"/>
<path d="M174.608 82.6631H175.32C175.831 82.6634 176.323 82.8534 176.702 83.1963L192.847 97.7688V82.6631H197.203V102.165C197.204 102.635 197.017 103.086 196.686 103.419C196.354 103.751 195.904 103.939 195.434 103.941H194.554C194.113 103.942 193.687 103.779 193.359 103.484L176.928 88.7274V103.941H172.544V84.7295C172.546 84.1825 172.764 83.6584 173.151 83.2715C173.537 82.8845 174.061 82.6658 174.608 82.6631Z" fill="white"/>
<path d="M212.738 86.6257H203.377V82.6631H226.223V86.6257H217.095V103.941H212.738V86.6257Z" fill="white"/>
<path d="M84.8665 82.9609H89.4183V91.8488H89.6258L100.19 82.9609H106.319L94.385 92.6496L107.111 103.94H100.729L89.661 93.6289H89.4183V103.94H84.8665V82.9609Z" fill="white"/>
<path d="M86.4866 118.608C86.4866 119.316 86.6047 119.957 86.8408 120.547C87.0769 121.154 87.3973 121.66 87.8189 122.099C88.2236 122.537 88.7127 122.874 89.286 123.11C89.8594 123.363 90.4665 123.481 91.1242 123.481C91.765 123.481 92.3721 123.363 92.9455 123.11C93.5188 122.874 94.0079 122.537 94.4295 122.099C94.8511 121.66 95.1884 121.154 95.4245 120.547C95.6606 119.957 95.7786 119.316 95.7786 118.608C95.7786 117.933 95.6606 117.292 95.4413 116.685C95.2052 116.095 94.8848 115.572 94.4801 115.134C94.0754 114.695 93.5863 114.358 93.0129 114.105C92.4396 113.869 91.7987 113.734 91.1242 113.734C90.4665 113.734 89.8594 113.869 89.286 114.105C88.7127 114.341 88.2236 114.679 87.8189 115.117C87.3973 115.555 87.0769 116.061 86.8408 116.652C86.6047 117.259 86.4866 117.9 86.4866 118.608ZM85.0363 118.608C85.0363 117.798 85.1881 117.006 85.4917 116.264C85.7952 115.522 86.2168 114.881 86.7564 114.324C87.2961 113.768 87.9369 113.329 88.6789 112.992C89.4209 112.655 90.2473 112.486 91.141 112.486C92.0854 112.486 92.9286 112.655 93.6875 112.992C94.4295 113.329 95.0703 113.785 95.5931 114.341C96.1159 114.915 96.5206 115.555 96.8073 116.297C97.0771 117.039 97.2289 117.798 97.2289 118.608C97.2289 119.451 97.0603 120.244 96.7567 120.986C96.4532 121.728 96.0147 122.385 95.4751 122.942C94.9354 123.498 94.2946 123.937 93.5526 124.257C92.8106 124.578 92.0011 124.729 91.141 124.729C90.0955 124.729 89.1848 124.544 88.4091 124.173C87.6334 123.802 87.0094 123.33 86.5035 122.739C85.9976 122.166 85.6266 121.508 85.3905 120.766C85.1544 120.041 85.0363 119.316 85.0363 118.608ZM104.056 119.586C103.972 119.266 103.904 118.962 103.853 118.692C103.803 118.422 103.752 118.136 103.702 117.832H103.634C103.584 118.136 103.533 118.456 103.466 118.81C103.398 119.164 103.331 119.535 103.23 119.923L102.15 124.358H100.413L98.2884 116.281H99.6375L100.902 121.61C100.936 121.812 100.987 121.997 101.02 122.132C101.054 122.267 101.071 122.402 101.105 122.52C101.122 122.638 101.138 122.756 101.172 122.858C101.189 122.959 101.206 123.077 101.24 123.212H101.307C101.358 122.959 101.408 122.689 101.476 122.419C101.543 122.149 101.611 121.846 101.695 121.525L102.96 116.281H104.41L105.725 121.593C105.81 121.947 105.877 122.234 105.928 122.47C105.961 122.706 106.012 122.959 106.08 123.212H106.13C106.164 122.908 106.214 122.605 106.282 122.301C106.332 122.014 106.383 121.778 106.434 121.61L107.732 116.281H109.064L106.94 124.358H105.236L104.056 119.586ZM110.674 116.281H112.006V117.292H112.04C112.411 116.82 112.815 116.483 113.254 116.297C113.692 116.112 114.148 116.011 114.586 116.011C114.957 116.011 115.328 116.078 115.699 116.196C116.07 116.331 116.424 116.534 116.728 116.82C117.031 117.107 117.267 117.478 117.47 117.933C117.672 118.405 117.773 118.979 117.773 119.653V124.358H116.441V119.738C116.441 118.928 116.256 118.304 115.885 117.866C115.514 117.427 115.025 117.208 114.384 117.208C113.642 117.208 113.068 117.461 112.647 117.933C112.208 118.405 112.006 119.114 112.006 120.058V124.358H110.674V116.281ZM126.859 119.67L123.25 112.857H124.818L127.01 117.073C127.128 117.326 127.23 117.562 127.331 117.765C127.432 117.967 127.516 118.186 127.617 118.405H127.651C127.752 118.169 127.854 117.967 127.955 117.765C128.056 117.579 128.157 117.36 128.292 117.09L130.383 112.857H131.833L128.258 119.653V124.358H126.859V119.67ZM132.63 120.311C132.63 119.704 132.731 119.131 132.95 118.591C133.169 118.068 133.473 117.613 133.861 117.225C134.249 116.854 134.704 116.55 135.244 116.331C135.766 116.129 136.34 116.011 136.947 116.011C137.571 116.011 138.144 116.129 138.684 116.348C139.207 116.567 139.662 116.871 140.05 117.242C140.421 117.63 140.724 118.085 140.944 118.608C141.146 119.147 141.264 119.704 141.264 120.311C141.264 120.918 141.146 121.475 140.944 121.997C140.724 122.52 140.421 122.976 140.033 123.363C139.645 123.768 139.19 124.072 138.667 124.308C138.127 124.544 137.554 124.645 136.947 124.645C136.34 124.645 135.766 124.544 135.244 124.308C134.704 124.089 134.249 123.785 133.861 123.397C133.473 123.009 133.169 122.554 132.95 122.014C132.731 121.492 132.63 120.918 132.63 120.311ZM134.013 120.311C134.013 120.783 134.08 121.205 134.249 121.576C134.4 121.947 134.62 122.284 134.89 122.554C135.159 122.841 135.463 123.06 135.817 123.212C136.171 123.363 136.542 123.431 136.947 123.431C137.369 123.431 137.756 123.363 138.127 123.195C138.482 123.043 138.785 122.824 139.055 122.537C139.308 122.267 139.51 121.93 139.662 121.542C139.797 121.171 139.881 120.75 139.881 120.311C139.881 119.889 139.797 119.485 139.662 119.114C139.527 118.743 139.325 118.405 139.072 118.119C138.819 117.849 138.515 117.63 138.144 117.461C137.773 117.292 137.385 117.208 136.947 117.208C136.508 117.208 136.121 117.292 135.766 117.444C135.395 117.613 135.092 117.832 134.839 118.102C134.569 118.372 134.367 118.709 134.232 119.08C134.08 119.451 134.013 119.873 134.013 120.311ZM149.814 124.358H148.482V123.363H148.448C148.077 123.852 147.689 124.19 147.267 124.375C146.846 124.561 146.424 124.645 146.003 124.645C145.632 124.645 145.277 124.594 144.923 124.46C144.552 124.342 144.232 124.139 143.928 123.852C143.625 123.566 143.389 123.195 143.203 122.723C143.018 122.267 142.933 121.694 142.933 121.002V116.281H144.266V120.901C144.266 121.728 144.434 122.352 144.788 122.79C145.143 123.229 145.615 123.431 146.222 123.431C146.913 123.431 147.47 123.195 147.874 122.723C148.279 122.25 148.482 121.542 148.482 120.598V116.281H149.814V124.358ZM156.324 117.292C156.223 117.276 156.105 117.259 155.987 117.242C155.869 117.225 155.717 117.208 155.548 117.208C155.245 117.208 154.975 117.276 154.722 117.377C154.469 117.478 154.25 117.647 154.064 117.883C153.879 118.119 153.727 118.405 153.626 118.776C153.524 119.147 153.474 119.569 153.474 120.075V124.358H152.142V116.281H153.474V117.292H153.508C153.575 117.158 153.659 117.023 153.794 116.871C153.929 116.719 154.081 116.584 154.267 116.449C154.452 116.331 154.654 116.23 154.89 116.146C155.127 116.061 155.38 116.011 155.649 116.011C155.902 116.011 156.122 116.028 156.324 116.061V117.292ZM165.933 112.857C166.962 112.857 167.872 113.009 168.665 113.313C169.441 113.616 170.098 114.038 170.621 114.561C171.144 115.083 171.532 115.69 171.801 116.382C172.071 117.09 172.206 117.832 172.206 118.608C172.206 119.384 172.054 120.126 171.785 120.817C171.515 121.525 171.11 122.132 170.57 122.655C170.031 123.178 169.356 123.6 168.58 123.903C167.805 124.207 166.911 124.358 165.899 124.358H162.206V112.857H165.933ZM165.983 123.077C166.776 123.077 167.467 122.959 168.075 122.723C168.665 122.487 169.154 122.166 169.559 121.761C169.963 121.357 170.25 120.884 170.452 120.345C170.655 119.805 170.756 119.215 170.756 118.608C170.756 117.967 170.638 117.36 170.436 116.803C170.233 116.264 169.93 115.792 169.525 115.387C169.12 114.999 168.614 114.695 168.024 114.476C167.417 114.257 166.742 114.139 165.983 114.139H163.606V123.077H165.983ZM178.194 117.292C178.093 117.276 177.975 117.259 177.857 117.242C177.739 117.225 177.587 117.208 177.418 117.208C177.115 117.208 176.845 117.276 176.592 117.377C176.339 117.478 176.12 117.647 175.934 117.883C175.749 118.119 175.597 118.405 175.496 118.776C175.395 119.147 175.344 119.569 175.344 120.075V124.358H174.012V116.281H175.344V117.292H175.378C175.445 117.158 175.53 117.023 175.665 116.871C175.8 116.719 175.951 116.584 176.137 116.449C176.322 116.331 176.525 116.23 176.761 116.146C176.997 116.061 177.25 116.011 177.52 116.011C177.773 116.011 177.992 116.028 178.194 116.061V117.292ZM183.233 116.011C183.958 116.011 184.582 116.163 185.088 116.432C185.594 116.702 186.016 117.056 186.336 117.461C186.64 117.866 186.876 118.321 187.011 118.81C187.145 119.316 187.23 119.771 187.23 120.21C187.23 120.294 187.213 120.379 187.213 120.48C187.213 120.581 187.196 120.665 187.196 120.699H180.602C180.602 121.07 180.67 121.424 180.838 121.761C180.99 122.099 181.193 122.385 181.462 122.638C181.732 122.891 182.036 123.094 182.373 123.245C182.71 123.397 183.081 123.465 183.469 123.465C183.941 123.465 184.346 123.38 184.666 123.212C184.987 123.043 185.274 122.807 185.543 122.487H187.078C186.943 122.756 186.758 123.009 186.555 123.262C186.353 123.515 186.1 123.751 185.796 123.954C185.493 124.156 185.156 124.325 184.785 124.46C184.397 124.594 183.975 124.645 183.503 124.645C182.862 124.645 182.272 124.544 181.749 124.308C181.209 124.089 180.771 123.785 180.4 123.38C180.029 122.976 179.725 122.503 179.523 121.964C179.321 121.424 179.219 120.851 179.219 120.21C179.219 119.67 179.304 119.131 179.506 118.625C179.692 118.119 179.961 117.663 180.316 117.276C180.653 116.905 181.074 116.601 181.58 116.365C182.069 116.129 182.626 116.011 183.233 116.011ZM183.233 117.174C182.845 117.174 182.491 117.242 182.188 117.377C181.884 117.512 181.614 117.697 181.395 117.916C181.159 118.153 180.99 118.405 180.855 118.692C180.72 118.996 180.653 119.282 180.619 119.586H185.83C185.796 119.282 185.712 118.979 185.577 118.675C185.442 118.389 185.257 118.136 185.037 117.916C184.801 117.697 184.548 117.512 184.245 117.377C183.941 117.242 183.604 117.174 183.233 117.174ZM196.908 124.358H195.575V123.279H195.542C195.238 123.65 194.85 123.971 194.361 124.24C193.855 124.51 193.265 124.645 192.59 124.645C192.034 124.645 191.511 124.544 191.005 124.342C190.499 124.139 190.061 123.852 189.69 123.465C189.302 123.094 188.998 122.638 188.779 122.099C188.543 121.576 188.442 120.986 188.442 120.311C188.442 119.704 188.543 119.131 188.762 118.591C188.965 118.068 189.268 117.613 189.656 117.225C190.027 116.854 190.482 116.55 190.988 116.331C191.494 116.129 192.068 116.011 192.675 116.011C193.046 116.011 193.366 116.061 193.67 116.146C193.956 116.247 194.226 116.348 194.462 116.483C194.698 116.618 194.901 116.77 195.086 116.938C195.255 117.107 195.424 117.276 195.558 117.444H195.575V116.281H196.908V124.358ZM189.825 120.311C189.825 120.716 189.875 121.104 189.993 121.475C190.111 121.846 190.297 122.183 190.55 122.47C190.786 122.773 191.106 123.009 191.477 123.195C191.848 123.38 192.27 123.465 192.776 123.465C193.147 123.465 193.518 123.397 193.872 123.245C194.209 123.094 194.53 122.874 194.8 122.605C195.069 122.335 195.272 121.997 195.44 121.626C195.609 121.255 195.693 120.834 195.693 120.362C195.693 119.889 195.609 119.451 195.457 119.063C195.305 118.675 195.103 118.338 194.833 118.051C194.563 117.781 194.26 117.562 193.923 117.41C193.568 117.259 193.197 117.174 192.81 117.174C192.304 117.174 191.848 117.276 191.477 117.444C191.106 117.63 190.786 117.866 190.55 118.169C190.314 118.473 190.128 118.81 190.01 119.181C189.875 119.552 189.825 119.94 189.825 120.311ZM199.242 116.281H200.574V117.292H200.608C200.878 116.938 201.215 116.635 201.62 116.382C202.024 116.146 202.48 116.011 203.019 116.011C203.66 116.011 204.217 116.179 204.689 116.5C205.161 116.82 205.481 117.208 205.65 117.68C205.751 117.478 205.886 117.292 206.055 117.09C206.223 116.888 206.426 116.719 206.662 116.55C206.898 116.382 207.151 116.264 207.455 116.163C207.758 116.061 208.079 116.011 208.433 116.011C209.343 116.011 210.085 116.331 210.659 116.938C211.232 117.562 211.519 118.473 211.519 119.653V124.358H210.186V119.552C210.186 119.249 210.136 118.945 210.068 118.658C210.001 118.389 209.883 118.136 209.731 117.916C209.563 117.714 209.36 117.545 209.124 117.41C208.871 117.276 208.584 117.208 208.247 117.208C207.96 117.208 207.691 117.259 207.421 117.36C207.151 117.461 206.932 117.63 206.729 117.849C206.527 118.068 206.358 118.338 206.24 118.675C206.105 119.013 206.055 119.417 206.055 119.873V124.358H204.706V119.552C204.706 119.215 204.655 118.911 204.571 118.625C204.47 118.355 204.352 118.102 204.183 117.883C204.014 117.68 203.829 117.512 203.593 117.394C203.357 117.276 203.087 117.208 202.783 117.208C202.109 117.208 201.569 117.444 201.164 117.916C200.76 118.389 200.574 119.029 200.574 119.873V124.358H199.242V116.281ZM217.545 118.22C217.478 117.916 217.326 117.647 217.09 117.444C216.854 117.242 216.567 117.141 216.247 117.141C215.825 117.141 215.505 117.259 215.285 117.461C215.066 117.68 214.965 117.933 214.965 118.22C214.965 118.355 214.982 118.473 215.015 118.591C215.049 118.709 215.134 118.827 215.268 118.928C215.386 119.046 215.555 119.164 215.774 119.282C215.994 119.4 216.297 119.518 216.668 119.62C217.107 119.771 217.478 119.94 217.781 120.126C218.085 120.311 218.321 120.513 218.506 120.733C218.675 120.952 218.81 121.188 218.894 121.424C218.962 121.677 219.012 121.93 219.012 122.2C219.012 122.942 218.759 123.549 218.27 123.987C217.764 124.426 217.107 124.645 216.28 124.645C215.825 124.645 215.437 124.594 215.1 124.46C214.763 124.342 214.476 124.173 214.24 123.954C214.004 123.734 213.801 123.481 213.666 123.178C213.515 122.874 213.413 122.554 213.346 122.2H214.695C214.763 122.571 214.931 122.874 215.184 123.127C215.437 123.38 215.825 123.498 216.331 123.498C216.769 123.498 217.107 123.397 217.343 123.161C217.562 122.925 217.68 122.638 217.68 122.301C217.68 122.132 217.646 121.981 217.613 121.829C217.562 121.694 217.478 121.542 217.343 121.407C217.208 121.272 217.022 121.154 216.786 121.036C216.55 120.918 216.247 120.8 215.876 120.665C215.1 120.429 214.543 120.109 214.189 119.704C213.818 119.316 213.65 118.81 213.65 118.203C213.65 117.916 213.7 117.647 213.801 117.377C213.902 117.107 214.071 116.871 214.29 116.668C214.493 116.466 214.763 116.314 215.083 116.196C215.386 116.078 215.757 116.011 216.179 116.011C216.584 116.011 216.955 116.078 217.258 116.196C217.562 116.314 217.832 116.466 218.051 116.668C218.27 116.871 218.456 117.107 218.591 117.377C218.726 117.647 218.827 117.916 218.894 118.22H217.545Z" fill="white"/>
<defs>
<linearGradient id="paint0_linear_1_730" x1="15.0226" y1="103.154" x2="15.1293" y2="103.154" gradientUnits="userSpaceOnUse">
<stop stop-color="#4DBFA8"/>
<stop offset="1" stop-color="#0287B7"/>
</linearGradient>
<linearGradient id="paint1_linear_1_730" x1="64.3792" y1="112.849" x2="62.6054" y2="70.2088" gradientUnits="userSpaceOnUse">
<stop stop-color="#0287B7"/>
<stop offset="0.11" stop-color="#1C9AB2"/>
<stop offset="0.26" stop-color="#37AEAC"/>
<stop offset="0.39" stop-color="#47BBA9"/>
<stop offset="0.48" stop-color="#4DBFA8"/>
<stop offset="1" stop-color="#067A89"/>
</linearGradient>
<linearGradient id="paint2_linear_1_730" x1="15.0226" y1="103.154" x2="15.1293" y2="103.154" gradientUnits="userSpaceOnUse">
<stop stop-color="#4DBFA8"/>
<stop offset="1" stop-color="#0287B7"/>
</linearGradient>
<linearGradient id="paint3_linear_1_730" x1="46.3605" y1="105.308" x2="29.9457" y2="105.038" gradientUnits="userSpaceOnUse">
<stop stop-color="#4DBFA8"/>
<stop offset="1" stop-color="#067A89"/>
</linearGradient>
<linearGradient id="paint4_linear_1_730" x1="47.1219" y1="77.3599" x2="30.539" y2="77.4491" gradientUnits="userSpaceOnUse">
<stop stop-color="#4DBFA8"/>
<stop offset="1" stop-color="#067A89"/>
</linearGradient>
<linearGradient id="paint5_linear_1_730" x1="33.0663" y1="58.6982" x2="34.4315" y2="124.92" gradientUnits="userSpaceOnUse">
<stop stop-color="#4DBFA8"/>
<stop offset="1" stop-color="#0287B7"/>
</linearGradient>
<linearGradient id="paint6_linear_1_730" x1="22.8878" y1="91.2452" x2="43.7486" y2="91.2452" gradientUnits="userSpaceOnUse">
<stop stop-color="#4DBFA8"/>
<stop offset="1" stop-color="#067A89"/>
</linearGradient>
<linearGradient id="paint7_linear_1_730" x1="32.4956" y1="88.1795" x2="59.207" y2="109.723" gradientUnits="userSpaceOnUse">
<stop offset="0.3" stop-color="#4DBFA8"/>
<stop offset="0.53" stop-color="#4BBDA7"/>
<stop offset="0.65" stop-color="#43B6A4"/>
<stop offset="0.74" stop-color="#36A99E"/>
<stop offset="0.81" stop-color="#249796"/>
<stop offset="0.88" stop-color="#0C808C"/>
<stop offset="0.89" stop-color="#067A89"/>
</linearGradient>
<linearGradient id="paint8_linear_1_730" x1="60.4227" y1="70.8353" x2="36.286" y2="92.6567" gradientUnits="userSpaceOnUse">
<stop stop-color="#4DBFA8"/>
<stop offset="1" stop-color="#067A89"/>
</linearGradient>
<linearGradient id="paint9_linear_1_730" x1="29.7716" y1="74.9553" x2="29.9438" y2="87.8868" gradientUnits="userSpaceOnUse">
<stop stop-color="#4DBFA8"/>
<stop offset="1" stop-color="#067A89"/>
</linearGradient>
<linearGradient id="paint10_linear_1_730" x1="29.9251" y1="110.453" x2="29.7799" y2="94.6024" gradientUnits="userSpaceOnUse">
<stop stop-color="#4DBFA8"/>
<stop offset="1" stop-color="#067A89"/>
</linearGradient>
<linearGradient id="paint11_linear_1_730" x1="23.0165" y1="100.596" x2="23.1109" y2="100.596" gradientUnits="userSpaceOnUse">
<stop stop-color="#4DBFA8"/>
<stop offset="1" stop-color="#0287B7"/>
</linearGradient>
<linearGradient id="paint12_linear_1_730" x1="23.0165" y1="100.596" x2="23.1109" y2="100.596" gradientUnits="userSpaceOnUse">
<stop stop-color="#4DBFA8"/>
<stop offset="1" stop-color="#0287B7"/>
</linearGradient>
</defs>
</svg>
